<svg id="visual" viewBox="0 0 960 540" width="960" height="540" xmlns="http://www.w3.org/2000/svg" xmlns:xlink="http://www.w3.org/1999/xlink" version="1.1"><rect x="0" y="0" width="960" height="540" fill="#0066FF"></rect><path d="M0 476L22.8 477.5C45.7 479 91.3 482 137 473.7C182.7 465.3 228.3 445.7 274 436.2C319.7 426.7 365.3 427.3 411.2 434.3C457 441.3 503 454.7 548.8 453.8C594.7 453 640.3 438 686 440.5C731.7 443 777.3 463 823 466.8C868.7 470.7 914.3 458.3 937.2 452.2L960 446L960 541L937.2 541C914.3 541 868.7 541 823 541C777.3 541 731.7 541 686 541C640.3 541 594.7 541 548.8 541C503 541 457 541 411.2 541C365.3 541 319.7 541 274 541C228.3 541 182.7 541 137 541C91.3 541 45.7 541 22.8 541L0 541Z" fill="#FFFFFF" stroke-linecap="round" stroke-linejoin="miter"></path></svg>