<svg id="visual" viewBox="0 0 960 540" width="960" height="540" xmlns="http://www.w3.org/2000/svg" xmlns:xlink="http://www.w3.org/1999/xlink" version="1.1"><rect x="0" y="0" width="960" height="540" fill="#0066FF"></rect><path d="M0 412L26.7 402C53.3 392 106.7 372 160 357.5C213.3 343 266.7 334 320 341.7C373.3 349.3 426.7 373.7 480 371.5C533.3 369.3 586.7 340.7 640 321.2C693.3 301.7 746.7 291.3 800 308.8C853.3 326.3 906.7 371.7 933.3 394.3L960 417L960 541L933.3 541C906.7 541 853.3 541 800 541C746.7 541 693.3 541 640 541C586.7 541 533.3 541 480 541C426.7 541 373.3 541 320 541C266.7 541 213.3 541 160 541C106.7 541 53.3 541 26.7 541L0 541Z" fill="#FFFFFF" stroke-linecap="round" stroke-linejoin="miter"></path></svg>